# xmcd
#
# Track frame offsets: 
#        150
#        33751
#        58727
#        78438
#        110220
#        134413
#        156156
#        173359
#        194042
#        218891
#        247468
#        271535
#
# Disc length: 3872 seconds
#
# Revision: 1
# Processed by: cddbd v1.5.2PL0 Copyright (c) Steve Scherf et al.
# Submitted via: ExactAudioCopy v0.99pb4
#
DISCID=ad0f1e0c
DTITLE=Marian McPartland Trio - Live At Shanghai Jazz
DYEAR=2002
DGENRE=Jazz
TTITLE0=Scratchin' In The Gravel
TTITLE1=For All We Know
TTITLE2=Pensativa
TTITLE3=You'd Be So Nice To Come Home To
TTITLE4=Just Squeeze Me
TTITLE5=I Can't Explain
TTITLE6=A Snare And A Delusion
TTITLE7=Moon And Sand
TTITLE8=Prelude To A Kiss
TTITLE9=All The Things You Are
TTITLE10=Shanghai Blues
TTITLE11=Black Is The Color Of My True Love's Hair
EXTD=YEAR: 2002
EXTT0=
EXTT1=
EXTT2=
EXTT3=
EXTT4=
EXTT5=
EXTT6=
EXTT7=
EXTT8=
EXTT9=
EXTT10=
EXTT11=
PLAYORDER=
